<svg width="64" height="22" viewBox="0 0 64 22" fill="none" xmlns="http://www.w3.org/2000/svg"><path d="M61.526 15.23c-.31 1.847-1.392 3.385-2.937 4.77-1.546 1.385-3.247 2-5.102 2H39.883l4.174-22h13.604c1.855 0 3.401.615 4.328 2 1.083 1.385 1.392 2.923 1.083 4.77-.31 1.384-1.083 2.768-2.628 4.153.927 1.538 1.39 2.923 1.082 4.308zm-5.102 0c.155-.46 0-.922-.309-1.23-.309-.308-.618-.461-1.082-.461H49.16l1.082-5.077h5.874c.464 0 .928-.154 1.392-.462.463-.308.618-.77.772-1.23.155-.462 0-.924-.309-1.232-.309-.307-.618-.461-1.082-.461h-8.657l-2.473 11.846h8.657c.464 0 .927-.154 1.391-.461.31-.462.618-.77.618-1.231z" fill="#fff"/><path d="M23.652 21.846H18.55L20.56 12l-7.11 9.846h-3.093L6.957 12l-2.01 9.846H0L4.328 0h4.947l4.174 13.385L22.88 0h4.947l-4.174 21.846zm19.014 0H26.589L30.917 0h5.102l-3.247 16.923h10.976l-1.082 4.923z" fill="#FB0"/></svg>