<svg width="32" height="32" viewBox="0 0 32 32" fill="none" xmlns="http://www.w3.org/2000/svg"><path fill-rule="evenodd" clip-rule="evenodd" d="M16 32c8.837 0 16-7.163 16-16S24.837 0 16 0 0 7.163 0 16s7.163 16 16 16z" fill="#03ACEB"/><path fill-rule="evenodd" clip-rule="evenodd" d="M16.091 9.495c2.943.173 4.667 1.473 4.834 2.688.082.793-.443 1.41-1.355 1.41-1.33 0-1.466-1.782-3.758-1.782-1.034 0-1.907.431-1.907 1.368 0 1.957 7.344.82 7.344 5.13 0 2.484-1.98 4.111-4.934 4.111-2.599 0-5.21-1.183-5.197-3.22.004-.615.46-1.18 1.068-1.18 1.53 0 1.516 2.285 3.953 2.285 1.71 0 2.293-.937 2.293-1.59 0-2.358-7.388-.912-7.388-5.347 0-2.4 1.963-4.055 5.047-3.873zM6.87 16.007c0 5.062 4.084 9.166 9.124 9.166.585 0 1.156-.057 1.71-.163a5.28 5.28 0 002.75.768c2.94-.001 5.325-2.396 5.325-5.35a5.35 5.35 0 00-.8-2.822c.09-.52.14-1.054.14-1.599 0-5.062-4.085-9.165-9.125-9.165a9.13 9.13 0 00-1.68.157 5.282 5.282 0 00-2.765-.777c-2.941 0-5.325 2.395-5.325 5.35 0 1.03.29 1.99.792 2.807a9.212 9.212 0 00-.146 1.628z" fill="#fff"/></svg>