<svg width="32" height="32" viewBox="0 0 32 32" fill="none" xmlns="http://www.w3.org/2000/svg"><path d="M16 32c8.837 0 16-7.163 16-16S24.837 0 16 0 0 7.163 0 16s7.163 16 16 16z" fill="url(#paint0_linear_5290_167)"/><path d="M23.787 9.206l-2.856 14.407s-.4 1-1.5.518l-6.594-5.056-2.4-1.156L6.4 16.562s-.619-.218-.682-.7c-.062-.48.7-.737.7-.737l16.05-6.294c0-.006 1.32-.587 1.32.375z" fill="#fff"/><path d="M12.325 23.45s-.194-.019-.431-.775c-.238-.756-1.457-4.756-1.457-4.756l9.694-6.157s.563-.337.538 0c0 0 .1.063-.2.338-.3.281-7.613 6.856-7.613 6.856" fill="#D2E4F0"/><path d="M15.362 21.012l-2.606 2.382s-.206.156-.425.056l.5-4.419" fill="#B5CFE4"/><defs><linearGradient id="paint0_linear_5290_167" x1="16" y1="0" x2="16" y2="31.883" gradientUnits="userSpaceOnUse"><stop stop-color="#41BCE7"/><stop offset="1" stop-color="#22A6DC"/></linearGradient></defs></svg>