<svg width="30" height="30" viewBox="0 0 30 30" fill="none" xmlns="http://www.w3.org/2000/svg"><path d="M25.069 4.803A14.14 14.14 0 0014.993.625C7.14.625.747 7.017.747 14.872c0 2.509.654 4.96 1.9 7.123l-2.022 7.38 7.553-1.983a14.204 14.204 0 006.81 1.733h.005c7.849 0 14.382-6.392 14.382-14.247 0-3.806-1.617-7.38-4.306-10.075z" fill="#2CB742"/><path d="M14.993 26.724a11.82 11.82 0 01-6.032-1.649l-.43-.256-4.48 1.174 1.194-4.37-.282-.45a11.803 11.803 0 01-1.81-6.301c0-6.527 5.314-11.84 11.847-11.84 3.164 0 6.135 1.232 8.368 3.471 2.233 2.24 3.607 5.211 3.6 8.375 0 6.533-5.448 11.846-11.975 11.846z" fill="#fff"/><path d="M21.488 17.856c-.353-.18-2.105-1.04-2.433-1.155-.327-.122-.564-.18-.802.18-.237.359-.917 1.154-1.13 1.398-.204.238-.416.27-.77.09-2.091-1.046-3.465-1.867-4.844-4.235-.366-.63.365-.584 1.046-1.945.115-.237.058-.443-.032-.622-.09-.18-.803-1.932-1.098-2.644-.289-.693-.584-.597-.802-.61-.205-.013-.443-.013-.68-.013-.238 0-.623.09-.95.443-.327.36-1.245 1.22-1.245 2.971 0 1.752 1.277 3.447 1.45 3.684.18.237 2.51 3.831 6.084 5.378 2.259.975 3.145 1.058 4.274.892.687-.103 2.105-.86 2.4-1.694.295-.835.295-1.547.206-1.695-.084-.16-.322-.25-.674-.423z" fill="#2CB742"/></svg>